<svg xmlns="http://www.w3.org/2000/svg" viewBox="0 0 823.83 227.96"><defs><style>.cls-1{fill:#231f20;fill-rule:evenodd;}</style></defs><title>Asset 1</title><g id="Layer_2" data-name="Layer 2"><g id="Layer_1-2" data-name="Layer 1"><path class="cls-1" d="M728.14,145.71h3.2c1,24.3,5.78,43.34,14.16,57.11s19.06,20.59,31.93,20.59c10.38,0,19-4.79,25.94-14.37s10.28-21.31,10.28-35.32c0-11.85-3.09-21.91-9.48-30.05-3.39-4.31-8.58-8-15.36-10.77-3.3-1.56-10.58-3.83-21.85-7-13.47-4-23.35-10.41-29.54-19.39s-9.28-22.63-9.28-40.83c0-19.75,3.8-35.44,11.18-47.17S756.78,1.2,769.25,1.2c8,0,16,3.11,24,9.34s12.18,9.33,12.28,9.33c3.79,0,5.58-3.59,5.58-10.77V7.42h3.2V71.6h-3.2c-1.79-21.08-6.38-37.36-13.66-48.73C790,11.49,780.63,5.75,769.15,5.75c-9.88,0-17.56,3.83-23,11.37s-8.28,18.44-8.28,32.45c0,15.56,4,26.94,12,34.24,2.6,2.15,7.39,4.19,14.47,5.87,11.18,2.63,18.46,4.67,22,6,13.27,4.55,22.75,11.38,28.44,20.36,6.08,9.69,9.08,23.34,9.08,40.82,0,21.55-4.2,38.79-12.48,51.73S791.9,228,778.13,228c-8.08,0-16.76-2.75-26-8.5s-14.27-8.62-15.37-8.62q-4.94,0-5.38,12.93h-3.2V145.71Z"/><path class="cls-1" d="M0,221.62V217c7.88-.24,12.67-1.56,14.27-4.07S16.56,204,16.56,194V8.26H0V3.59H38.41l45.6,164,44-164h38.61V8.26H150.46V217h16.16v4.67H110.85V217H128V18.8L75.13,217h-1.8L21.05,27.3V194c0,11.37,1.6,18.32,4.59,20.71,1.8,1.56,6.79,2.28,15.07,2.28v4.67Z"/><path class="cls-1" d="M432.62,217V8.26H418.85V67.17h-3.1V58.91c0-19.52-1.69-32.21-5-38.2A21.22,21.22,0,0,0,397.5,10.18c-4.59-1.32-12.18-1.92-22.45-1.92h-9.48V217H382v4.67H326.46V217h16.36V8.26h-9.18c-13.57,0-22.45,1.08-26.84,3.23-8.08,4.43-12.67,14.25-13.67,29.34-.3,4.67-.5,10.65-.5,18.08v8.26h-1.94a182.94,182.94,0,0,1,5.64,46.45c0,29.57-6,55.56-17.76,77.7q-19.15,35.75-48.89,35.8-29.49,0-48.79-35.8c-12-22.38-18-48.36-18-77.7s6-55.31,18-77.7Q200.2,0,229.68,0q29.77,0,48.89,35.92a143.16,143.16,0,0,1,11,27.12V3.59H527.1l2.69,53H526.4q-1.78-29.27-11.47-39.15c-5.79-6.23-16.36-9.22-31.73-9.22H455.06V108.35h7c12.37,0,20.85-2.51,25.44-7.42s7-14.85,7-29.81V69.8h3.2v81.66h-3.2v-2.64c0-15.08-2.29-25-7-29.57-4-4-12.47-6-25.44-6h-7V217H483.9c18.76,0,31.83-4.07,39.11-12.22,8-8.26,12-23.58,12-45.73v-1h3.2v63.58H416.85V217ZM187.37,113.62c0,34.6,3.9,61.42,11.48,80.46s18,28.49,30.83,28.49,23.15-9.45,30.73-28.37,11.37-45.74,11.37-80.58S268,51.84,260.41,32.92,242.65,4.55,229.68,4.55s-23.05,9.34-30.53,28C191.27,52,187.37,78.9,187.37,113.62Z"/><path class="cls-1" d="M668.28,221.62v-.06a43.09,43.09,0,0,1-13.77,2.33c-9,0-15.76-5.15-20.45-15.44-2.7-6.23-4.59-15-5.59-26.58s-2-23.11-2.89-34.73c-1.4-14.24-4.69-23.94-10.08-29s-14.37-7.54-27.34-7.54h-7.38V217h15.76v4.67H541V217h16.86V8.26H541V3.59h62.56q51.63,0,51.68,51.72,0,45.8-42,51.73c12.87,2.87,22,8.26,27.53,16.4s8.88,21.19,10.18,39.27c1.79,24.78,2.89,38.07,3.19,39.75,1.8,9.7,5.49,14.49,11,14.49a15.5,15.5,0,0,0,8.18-2.28L674,217h11.19V8.26H668.28V3.59h55.57V8.26h-16V217h16v4.67ZM580.78,8.26v97.46h7.38q44.16,0,44.1-47.77c0-17.72-2.79-30.53-8.48-38.2S608.91,8.26,596.54,8.26Z"/></g></g></svg>