<svg xmlns="http://www.w3.org/2000/svg" viewBox="0 0 80 80"><defs><style>.cls-1{fill:#d93175;}.cls-2{fill:#fff;}</style></defs><title>Asset 59</title><g id="Layer_2" data-name="Layer 2"><g id="Layer_1-2" data-name="Layer 1"><rect class="cls-1" width="80" height="80"/><path class="cls-2" d="M40,20.32c6.41,0,7.17,0,9.7.14a13.22,13.22,0,0,1,4.45.83,8,8,0,0,1,4.56,4.56,13.22,13.22,0,0,1,.83,4.45c.11,2.53.14,3.29.14,9.7s0,7.17-.14,9.7a13.22,13.22,0,0,1-.83,4.45,8,8,0,0,1-4.56,4.56,13.22,13.22,0,0,1-4.45.83c-2.53.11-3.29.14-9.7.14s-7.17,0-9.7-.14a13.22,13.22,0,0,1-4.45-.83,8,8,0,0,1-4.56-4.56,13.22,13.22,0,0,1-.83-4.45c-.11-2.53-.14-3.29-.14-9.7s0-7.17.14-9.7a13.22,13.22,0,0,1,.83-4.45,8,8,0,0,1,4.56-4.56,13.22,13.22,0,0,1,4.45-.83c2.53-.11,3.29-.14,9.7-.14M40,16c-6.52,0-7.34,0-9.9.14a17.78,17.78,0,0,0-5.82,1.12,12.3,12.3,0,0,0-7,7,17.78,17.78,0,0,0-1.12,5.82C16,32.66,16,33.48,16,40s0,7.34.14,9.9a17.78,17.78,0,0,0,1.12,5.82,12.3,12.3,0,0,0,7,7,17.78,17.78,0,0,0,5.82,1.12c2.56.11,3.38.14,9.9.14s7.34,0,9.9-.14a17.78,17.78,0,0,0,5.82-1.12,12.3,12.3,0,0,0,7-7,17.78,17.78,0,0,0,1.12-5.82C64,47.34,64,46.52,64,40s0-7.34-.14-9.9a17.78,17.78,0,0,0-1.12-5.82,12.3,12.3,0,0,0-7-7,17.78,17.78,0,0,0-5.82-1.12C47.34,16,46.52,16,40,16Z"/><path class="cls-2" d="M40,27.68A12.32,12.32,0,1,0,52.32,40,12.31,12.31,0,0,0,40,27.68ZM40,48a8,8,0,1,1,8-8A8,8,0,0,1,40,48Z"/><circle class="cls-2" cx="52.81" cy="27.19" r="2.88"/></g></g></svg>